<svg width="106" height="20" viewBox="0 0 106 20" fill="none" xmlns="http://www.w3.org/2000/svg">
<path d="M3.48 19.3C2.86 19.3 2.27 19.13 1.71 18.79C1.15 18.43 0.73 17.89 0.45 17.17C0.35 16.91 0.28 16.64 0.24 16.36C0.2 16.06 0.18 15.77 0.18 15.49C0.18 15.21 0.23 15.07 0.33 15.07C0.45 15.07 0.51 15.15 0.51 15.31C0.51 16.25 0.74 16.96 1.2 17.44C1.68 17.92 2.27 18.16 2.97 18.16C3.67 18.16 4.34 17.96 4.98 17.56C5.64 17.16 6.25 16.65 6.81 16.03C7.73 15.03 8.51 14.02 9.15 13C9.79 11.96 10.37 10.9 10.89 9.82C11.43 8.72 11.97 7.58 12.51 6.4C12.85 5.68 13.27 5.05 13.77 4.51C14.29 3.97 14.91 3.6 15.63 3.4L15.66 3.37H14.01C13.31 3.37 12.57 3.4 11.79 3.46C11.01 3.52 10.3 3.65 9.66 3.85C9.04 4.05 8.59 4.35 8.31 4.75C8.13 5.01 8.04 5.31 8.04 5.65C8.04 5.99 8.13 6.32 8.31 6.64C8.49 6.96 8.72 7.19 9 7.33C9.04 7.37 9.06 7.4 9.06 7.42C9.06 7.46 9.01 7.51 8.91 7.57C8.83 7.61 8.74 7.62 8.64 7.6C8.48 7.5 8.28 7.34 8.04 7.12C7.8 6.88 7.58 6.63 7.38 6.37C7.2 6.11 7.08 5.89 7.02 5.71C6.94 5.47 6.9 5.23 6.9 4.99C6.9 4.51 7.07 4.12 7.41 3.82C7.77 3.52 8.23 3.29 8.79 3.13C9.35 2.97 9.95 2.86 10.59 2.8C11.25 2.72 11.88 2.68 12.48 2.68C13.1 2.66 13.63 2.65 14.07 2.65H17.31C17.35 2.65 17.37 2.66 17.37 2.68C17.37 2.74 17.3 2.83 17.16 2.95C17.04 3.05 16.96 3.1 16.92 3.1C16.42 3.2 16.05 3.47 15.81 3.91C15.57 4.33 15.46 5.01 15.48 5.95C15.48 5.95 15.48 6.17 15.48 6.61C15.5 7.05 15.52 7.62 15.54 8.32C15.56 9.02 15.58 9.77 15.6 10.57C15.62 11.37 15.64 12.14 15.66 12.88C15.68 13.62 15.7 14.24 15.72 14.74V14.92L26.13 3.94C26.79 3.24 27.44 2.65 28.08 2.17C28.74 1.67 29.42 1.45 30.12 1.51C30.14 1.51 30.15 1.52 30.15 1.54C30.17 1.54 30.18 1.54 30.18 1.54C30.18 1.6 30.14 1.67 30.06 1.75C29.98 1.83 29.89 1.88 29.79 1.9C29.27 1.88 28.8 2.08 28.38 2.5C27.96 2.92 27.57 3.42 27.21 4C27.03 4.3 26.76 4.78 26.4 5.44C26.04 6.08 25.63 6.84 25.17 7.72C24.73 8.6 24.28 9.53 23.82 10.51C23.36 11.49 22.93 12.45 22.53 13.39C22.15 14.33 21.84 15.19 21.6 15.97C21.36 16.73 21.24 17.35 21.24 17.83C21.24 18.39 21.43 18.67 21.81 18.67C21.97 18.67 22.14 18.63 22.32 18.55C22.58 18.45 22.87 18.3 23.19 18.1C23.51 17.9 23.8 17.67 24.06 17.41C24.58 16.91 25.04 16.4 25.44 15.88C25.84 15.34 26.08 15.03 26.16 14.95C26.22 14.87 26.27 14.83 26.31 14.83C26.39 14.83 26.43 14.89 26.43 15.01C26.43 15.13 26.39 15.24 26.31 15.34C26.15 15.54 25.88 15.89 25.5 16.39C25.12 16.87 24.67 17.36 24.15 17.86C23.65 18.36 23.11 18.74 22.53 19C22.35 19.08 22.16 19.14 21.96 19.18C21.76 19.24 21.56 19.27 21.36 19.27C20.92 19.27 20.52 19.14 20.16 18.88C19.82 18.6 19.65 18.14 19.65 17.5C19.65 16.88 19.79 16.18 20.07 15.4C20.37 14.6 20.7 13.83 21.06 13.09C21.44 12.33 21.75 11.69 21.99 11.17C22.25 10.63 22.58 9.94 22.98 9.1C23.38 8.26 23.84 7.41 24.36 6.55L15.72 15.67C15.7 15.83 15.63 15.99 15.51 16.15C15.39 16.29 15.2 16.41 14.94 16.51C14.8 16.57 14.61 16.73 14.37 16.99C14.13 17.25 13.97 17.43 13.89 17.53C13.89 17.55 13.86 17.56 13.8 17.56C13.74 17.56 13.68 17.54 13.62 17.5C13.56 17.46 13.54 17.43 13.56 17.41C14.08 16.75 14.35 15.84 14.37 14.68L14.4 13.96C14.44 13.12 14.47 12.24 14.49 11.32C14.51 10.38 14.52 9.51 14.52 8.71C14.54 7.89 14.55 7.23 14.55 6.73C14.55 6.21 14.55 5.95 14.55 5.95C14.55 5.47 14.62 5.05 14.76 4.69C14.9 4.33 15.07 4.02 15.27 3.76C14.93 4.02 14.6 4.33 14.28 4.69C13.96 5.05 13.69 5.45 13.47 5.89C13.17 6.51 12.83 7.31 12.45 8.29C12.07 9.27 11.63 10.31 11.13 11.41C10.65 12.51 10.11 13.59 9.51 14.65C8.93 15.69 8.28 16.59 7.56 17.35C7.06 17.89 6.42 18.35 5.64 18.73C4.88 19.11 4.16 19.3 3.48 19.3ZM32.1623 7.54C31.8823 7.54 31.6823 7.45 31.5623 7.27C31.4823 7.17 31.4423 7.04 31.4423 6.88C31.4423 6.56 31.5923 6.3 31.8923 6.1C32.1123 5.98 32.3123 5.92 32.4923 5.92C32.7923 5.92 33.0023 6.01 33.1223 6.19C33.2023 6.29 33.2423 6.42 33.2423 6.58C33.2423 6.9 33.0823 7.16 32.7623 7.36C32.5823 7.48 32.3823 7.54 32.1623 7.54ZM26.9423 19.09C26.7423 19.09 26.5723 19.05 26.4323 18.97C26.3123 18.89 26.2523 18.74 26.2523 18.52C26.2523 18.24 26.3223 17.91 26.4623 17.53C26.6223 17.15 26.7923 16.77 26.9723 16.39C27.1723 16.01 27.3223 15.7 27.4223 15.46C27.5623 15.18 27.7323 14.82 27.9323 14.38C28.1523 13.92 28.3523 13.49 28.5323 13.09C28.7323 12.67 28.8723 12.38 28.9523 12.22C28.6723 12.52 28.3323 12.9 27.9323 13.36C27.5523 13.8 27.1923 14.23 26.8523 14.65C26.5123 15.07 26.2523 15.4 26.0723 15.64C26.0123 15.72 25.9623 15.76 25.9223 15.76C25.8823 15.76 25.8623 15.71 25.8623 15.61C25.8623 15.45 25.9123 15.3 26.0123 15.16C26.3923 14.68 26.8123 14.14 27.2723 13.54C27.7523 12.94 28.1823 12.39 28.5623 11.89C28.9423 11.37 29.1823 11.03 29.2823 10.87C29.5023 10.83 29.8223 10.77 30.2423 10.69C30.6823 10.61 30.9823 10.5 31.1423 10.36C31.2023 10.3 31.2623 10.27 31.3223 10.27C31.3623 10.27 31.3823 10.31 31.3823 10.39C31.4023 10.45 31.3823 10.52 31.3223 10.6C31.2023 10.74 30.9923 11.08 30.6923 11.62C30.3923 12.16 30.0723 12.76 29.7323 13.42C29.4123 14.06 29.1123 14.64 28.8323 15.16C28.5523 15.7 28.3123 16.22 28.1123 16.72C27.9123 17.22 27.8123 17.58 27.8123 17.8C27.8123 18.08 27.9523 18.22 28.2323 18.22C28.4923 18.22 28.8223 18.06 29.2223 17.74C29.6423 17.42 30.0623 17.04 30.4823 16.6C30.9023 16.14 31.2723 15.72 31.5923 15.34C31.6923 15.22 31.8123 15.08 31.9523 14.92C32.1123 14.74 32.2123 14.63 32.2523 14.59C32.2923 14.63 32.3123 14.7 32.3123 14.8C32.2923 14.94 32.2423 15.08 32.1623 15.22C32.0823 15.34 32.0023 15.45 31.9223 15.55C31.5023 16.07 31.0423 16.61 30.5423 17.17C30.0423 17.71 29.4923 18.17 28.8923 18.55C28.2923 18.91 27.6423 19.09 26.9423 19.09ZM31.8738 19.45C31.7938 19.45 31.7938 19.36 31.8738 19.18C31.9738 19 32.0638 18.8 32.1438 18.58C32.2438 18.36 32.3438 18.12 32.4438 17.86C32.6438 17.38 32.8638 16.84 33.1038 16.24C33.3438 15.64 33.5738 15.06 33.7938 14.5C34.0138 13.92 34.2038 13.43 34.3638 13.03C34.5438 12.61 34.6638 12.34 34.7238 12.22C34.4438 12.52 34.1038 12.9 33.7038 13.36C33.3238 13.8 32.9638 14.23 32.6238 14.65C32.2838 15.07 32.0238 15.4 31.8438 15.64C31.7838 15.72 31.7338 15.76 31.6938 15.76C31.6538 15.76 31.6338 15.71 31.6338 15.61C31.6338 15.45 31.6838 15.3 31.7838 15.16C32.1638 14.68 32.5838 14.14 33.0438 13.54C33.5238 12.94 33.9538 12.39 34.3338 11.89C34.7138 11.37 34.9538 11.03 35.0538 10.87C35.2738 10.83 35.5938 10.77 36.0138 10.69C36.4538 10.61 36.7538 10.5 36.9138 10.36C36.9738 10.3 37.0338 10.27 37.0938 10.27C37.1338 10.27 37.1538 10.31 37.1538 10.39C37.1738 10.45 37.1538 10.52 37.0938 10.6C36.9738 10.74 36.7638 11.07 36.4638 11.59C36.1838 12.09 35.8738 12.65 35.5338 13.27C35.2138 13.89 34.9138 14.45 34.6338 14.95C34.8738 14.63 35.1338 14.32 35.4138 14.02C35.6938 13.72 35.9638 13.43 36.2238 13.15C36.4638 12.91 36.7938 12.61 37.2138 12.25C37.6338 11.89 38.0738 11.56 38.5338 11.26C38.9938 10.96 39.3938 10.79 39.7338 10.75C39.8138 10.73 39.8838 10.72 39.9438 10.72C40.0238 10.72 40.0838 10.72 40.1238 10.72C40.5638 10.72 40.7838 10.88 40.7838 11.2C40.7838 11.44 40.6538 11.76 40.3938 12.16C40.2538 12.38 40.0338 12.75 39.7338 13.27C39.4538 13.77 39.1638 14.32 38.8638 14.92C38.5838 15.5 38.3338 16.05 38.1138 16.57C37.9138 17.07 37.8138 17.44 37.8138 17.68C37.8138 17.96 37.9538 18.1 38.2338 18.1C38.5738 18.1 38.9438 17.93 39.3438 17.59C39.7638 17.25 40.2138 16.82 40.6938 16.3C41.1738 15.76 41.6538 15.19 42.1338 14.59C42.1738 14.63 42.1938 14.7 42.1938 14.8C42.1938 14.94 42.1438 15.08 42.0438 15.22C41.9638 15.34 41.8838 15.45 41.8038 15.55C41.6038 15.81 41.3338 16.14 40.9938 16.54C40.6738 16.92 40.3438 17.3 40.0038 17.68C39.6638 18.04 39.3538 18.33 39.0738 18.55C38.8738 18.69 38.6138 18.84 38.2938 19C37.9738 19.16 37.6538 19.24 37.3338 19.24C36.9738 19.24 36.7238 19.15 36.5838 18.97C36.4438 18.77 36.3738 18.53 36.3738 18.25C36.3738 17.93 36.4338 17.59 36.5538 17.23C36.6738 16.87 36.8038 16.53 36.9438 16.21C37.1038 15.87 37.2238 15.62 37.3038 15.46C37.6638 14.76 37.9938 14.1 38.2938 13.48C38.5938 12.86 38.8038 12.42 38.9238 12.16C38.9838 12.04 39.0138 11.94 39.0138 11.86C39.0138 11.72 38.9038 11.71 38.6838 11.83C38.4638 11.95 38.1938 12.13 37.8738 12.37C37.5738 12.61 37.2938 12.85 37.0338 13.09C36.7738 13.31 36.6038 13.46 36.5238 13.54C35.7838 14.32 35.1338 15.19 34.5738 16.15C34.0338 17.09 33.5738 18.06 33.1938 19.06C32.9338 19.08 32.6738 19.15 32.4138 19.27C32.1538 19.39 31.9738 19.45 31.8738 19.45ZM45.6762 19.09C45.4762 19.09 45.3062 19.05 45.1662 18.97C45.0262 18.89 44.9562 18.74 44.9562 18.52C44.9562 18.24 45.0262 17.92 45.1662 17.56C45.3062 17.2 45.4662 16.85 45.6462 16.51C45.8262 16.15 45.9862 15.86 46.1262 15.64C45.4262 16.38 44.6962 17.08 43.9362 17.74C43.5562 18.06 43.1362 18.36 42.6762 18.64C42.2162 18.92 41.7262 19.06 41.2062 19.06C41.0062 19.06 40.8662 19 40.7862 18.88C40.7062 18.74 40.6662 18.58 40.6662 18.4C40.6662 18.3 40.6762 18.23 40.6962 18.19C40.7962 17.41 41.0462 16.6 41.4462 15.76C41.8462 14.92 42.3362 14.13 42.9162 13.39C43.4962 12.65 44.0862 12.05 44.6862 11.59C45.1462 11.25 45.5862 11.04 46.0062 10.96C46.4262 10.86 46.8862 10.81 47.3862 10.81H48.3762C48.6962 10.27 49.0262 9.67 49.3662 9.01C49.7262 8.33 50.0762 7.66 50.4162 7C50.7762 6.34 51.1062 5.76 51.4062 5.26C52.2262 3.86 53.1262 2.74 54.1062 1.9C55.1062 1.06 56.2162 0.639999 57.4362 0.639999C57.6962 0.639999 57.9362 0.719999 58.1562 0.879999C58.3762 1.02 58.4762 1.24 58.4562 1.54L58.3962 2.62C58.3962 2.64 58.3762 2.67 58.3362 2.71C58.2962 2.73 58.2662 2.74 58.2462 2.74C58.2262 2.74 58.1962 2.72 58.1562 2.68C58.0962 2.32 57.9162 2.05 57.6162 1.87C57.3162 1.67 56.9462 1.57 56.5062 1.57C56.3662 1.57 56.2062 1.58 56.0262 1.6C55.8662 1.62 55.7062 1.66 55.5462 1.72C54.9862 1.92 54.4562 2.33 53.9562 2.95C53.4562 3.55 52.9162 4.35 52.3362 5.35C52.1362 5.73 51.8762 6.23 51.5562 6.85C51.2362 7.45 50.8962 8.1 50.5362 8.8C50.1962 9.5 49.8662 10.18 49.5462 10.84C49.2462 11.5 48.9862 12.06 48.7662 12.52C48.6662 12.76 48.4962 13.13 48.2562 13.63C48.0162 14.11 47.7562 14.64 47.4762 15.22C47.2162 15.78 46.9862 16.3 46.7862 16.78C46.6062 17.26 46.5162 17.6 46.5162 17.8C46.5162 18.08 46.6362 18.22 46.8762 18.22C47.1162 18.22 47.4362 18.08 47.8362 17.8C48.2362 17.5 48.6462 17.14 49.0662 16.72C49.5062 16.28 49.8962 15.86 50.2362 15.46C50.5962 15.06 50.8462 14.76 50.9862 14.56C51.0462 14.62 51.0762 14.69 51.0762 14.77C51.0762 14.91 51.0162 15.05 50.8962 15.19C50.7962 15.33 50.7062 15.45 50.6262 15.55C50.2662 16.03 49.8162 16.55 49.2762 17.11C48.7562 17.65 48.1862 18.12 47.5662 18.52C46.9462 18.9 46.3162 19.09 45.6762 19.09ZM42.4362 18.04C42.6762 18.04 43.0062 17.87 43.4262 17.53C43.8662 17.17 44.3362 16.73 44.8362 16.21C45.3362 15.67 45.8062 15.11 46.2462 14.53C46.6862 13.93 47.0462 13.39 47.3262 12.91C47.6262 12.41 47.7762 12.03 47.7762 11.77C47.7762 11.55 47.7062 11.4 47.5662 11.32C47.4462 11.24 47.2862 11.2 47.0862 11.2C46.7662 11.2 46.4162 11.32 46.0362 11.56C45.6762 11.78 45.3862 12 45.1662 12.22C44.9262 12.44 44.6362 12.79 44.2962 13.27C43.9762 13.73 43.6562 14.24 43.3362 14.8C43.0162 15.36 42.7462 15.9 42.5262 16.42C42.3062 16.94 42.1962 17.36 42.1962 17.68C42.1962 17.92 42.2762 18.04 42.4362 18.04ZM52.8745 19.3C52.2545 19.3 51.6645 19.13 51.1045 18.79C50.5445 18.43 50.1245 17.89 49.8445 17.17C49.7445 16.91 49.6745 16.64 49.6345 16.36C49.5945 16.06 49.5745 15.77 49.5745 15.49C49.5745 15.21 49.6245 15.07 49.7245 15.07C49.8445 15.07 49.9045 15.15 49.9045 15.31C49.9045 16.25 50.1345 16.96 50.5945 17.44C51.0745 17.92 51.6645 18.16 52.3645 18.16C53.0645 18.16 53.7345 17.96 54.3745 17.56C55.0345 17.16 55.6445 16.65 56.2045 16.03C57.1245 15.03 57.9045 14.02 58.5445 13C59.1845 11.96 59.7645 10.9 60.2845 9.82C60.8245 8.72 61.3645 7.58 61.9045 6.4C62.2445 5.68 62.6645 5.05 63.1645 4.51C63.6845 3.97 64.3045 3.6 65.0245 3.4L65.0545 3.37H63.4045C62.7045 3.37 61.9645 3.4 61.1845 3.46C60.4045 3.52 59.6945 3.65 59.0545 3.85C58.4345 4.05 57.9845 4.35 57.7045 4.75C57.5245 5.01 57.4345 5.31 57.4345 5.65C57.4345 5.99 57.5245 6.32 57.7045 6.64C57.8845 6.96 58.1145 7.19 58.3945 7.33C58.4345 7.37 58.4545 7.4 58.4545 7.42C58.4545 7.46 58.4045 7.51 58.3045 7.57C58.2245 7.61 58.1345 7.62 58.0345 7.6C57.8745 7.5 57.6745 7.34 57.4345 7.12C57.1945 6.88 56.9745 6.63 56.7745 6.37C56.5945 6.11 56.4745 5.89 56.4145 5.71C56.3345 5.47 56.2945 5.23 56.2945 4.99C56.2945 4.51 56.4645 4.12 56.8045 3.82C57.1645 3.52 57.6245 3.29 58.1845 3.13C58.7445 2.97 59.3445 2.86 59.9845 2.8C60.6445 2.72 61.2745 2.68 61.8745 2.68C62.4945 2.66 63.0245 2.65 63.4645 2.65H66.7045C66.7445 2.65 66.7645 2.66 66.7645 2.68C66.7645 2.74 66.6945 2.83 66.5545 2.95C66.4345 3.05 66.3545 3.1 66.3145 3.1C65.8145 3.2 65.4445 3.47 65.2045 3.91C64.9645 4.33 64.8545 5.01 64.8745 5.95C64.8745 5.95 64.8745 6.17 64.8745 6.61C64.8945 7.05 64.9145 7.62 64.9345 8.32C64.9545 9.02 64.9745 9.77 64.9945 10.57C65.0145 11.37 65.0345 12.14 65.0545 12.88C65.0745 13.62 65.0945 14.24 65.1145 14.74V14.92L75.5245 3.94C76.1845 3.24 76.8345 2.65 77.4745 2.17C78.1345 1.67 78.8145 1.45 79.5145 1.51C79.5345 1.51 79.5445 1.52 79.5445 1.54C79.5645 1.54 79.5745 1.54 79.5745 1.54C79.5745 1.6 79.5345 1.67 79.4545 1.75C79.3745 1.83 79.2845 1.88 79.1845 1.9C78.6645 1.88 78.1945 2.08 77.7745 2.5C77.3545 2.92 76.9645 3.42 76.6045 4C76.4245 4.3 76.1545 4.78 75.7945 5.44C75.4345 6.08 75.0245 6.84 74.5645 7.72C74.1245 8.6 73.6745 9.53 73.2145 10.51C72.7545 11.49 72.3245 12.45 71.9245 13.39C71.5445 14.33 71.2345 15.19 70.9945 15.97C70.7545 16.73 70.6345 17.35 70.6345 17.83C70.6345 18.39 70.8245 18.67 71.2045 18.67C71.3645 18.67 71.5345 18.63 71.7145 18.55C71.9745 18.45 72.2645 18.3 72.5845 18.1C72.9045 17.9 73.1945 17.67 73.4545 17.41C73.9745 16.91 74.4345 16.4 74.8345 15.88C75.2345 15.34 75.4745 15.03 75.5545 14.95C75.6145 14.87 75.6645 14.83 75.7045 14.83C75.7845 14.83 75.8245 14.89 75.8245 15.01C75.8245 15.13 75.7845 15.24 75.7045 15.34C75.5445 15.54 75.2745 15.89 74.8945 16.39C74.5145 16.87 74.0645 17.36 73.5445 17.86C73.0445 18.36 72.5045 18.74 71.9245 19C71.7445 19.08 71.5545 19.14 71.3545 19.18C71.1545 19.24 70.9545 19.27 70.7545 19.27C70.3145 19.27 69.9145 19.14 69.5545 18.88C69.2145 18.6 69.0445 18.14 69.0445 17.5C69.0445 16.88 69.1845 16.18 69.4645 15.4C69.7645 14.6 70.0945 13.83 70.4545 13.09C70.8345 12.33 71.1445 11.69 71.3845 11.17C71.6445 10.63 71.9745 9.94 72.3745 9.1C72.7745 8.26 73.2345 7.41 73.7545 6.55L65.1145 15.67C65.0945 15.83 65.0245 15.99 64.9045 16.15C64.7845 16.29 64.5945 16.41 64.3345 16.51C64.1945 16.57 64.0045 16.73 63.7645 16.99C63.5245 17.25 63.3645 17.43 63.2845 17.53C63.2845 17.55 63.2545 17.56 63.1945 17.56C63.1345 17.56 63.0745 17.54 63.0145 17.5C62.9545 17.46 62.9345 17.43 62.9545 17.41C63.4745 16.75 63.7445 15.84 63.7645 14.68L63.7945 13.96C63.8345 13.12 63.8645 12.24 63.8845 11.32C63.9045 10.38 63.9145 9.51 63.9145 8.71C63.9345 7.89 63.9445 7.23 63.9445 6.73C63.9445 6.21 63.9445 5.95 63.9445 5.95C63.9445 5.47 64.0145 5.05 64.1545 4.69C64.2945 4.33 64.4645 4.02 64.6645 3.76C64.3245 4.02 63.9945 4.33 63.6745 4.69C63.3545 5.05 63.0845 5.45 62.8645 5.89C62.5645 6.51 62.2245 7.31 61.8445 8.29C61.4645 9.27 61.0245 10.31 60.5245 11.41C60.0445 12.51 59.5045 13.59 58.9045 14.65C58.3245 15.69 57.6745 16.59 56.9545 17.35C56.4545 17.89 55.8145 18.35 55.0345 18.73C54.2745 19.11 53.5545 19.3 52.8745 19.3ZM77.0269 19.24C76.2069 19.24 75.6369 19.08 75.3169 18.76C74.9969 18.44 74.8369 18.05 74.8369 17.59C74.8369 17.01 74.9869 16.39 75.2869 15.73C75.6069 15.07 75.9069 14.51 76.1869 14.05C76.5069 13.57 76.9369 13.07 77.4769 12.55C78.0169 12.03 78.6069 11.59 79.2469 11.23C79.8869 10.87 80.5069 10.69 81.1069 10.69C81.6269 10.69 81.9869 10.82 82.1869 11.08C82.3869 11.32 82.4869 11.61 82.4869 11.95C82.4869 12.57 82.2969 13.08 81.9169 13.48C81.5569 13.88 81.1069 14.21 80.5669 14.47C80.0269 14.71 79.5069 14.91 79.0069 15.07C78.7069 15.15 78.3569 15.23 77.9569 15.31C77.5569 15.39 77.1769 15.43 76.8169 15.43C76.6769 15.79 76.5669 16.14 76.4869 16.48C76.4069 16.82 76.3669 17.13 76.3669 17.41C76.3669 17.75 76.4469 18.03 76.6069 18.25C76.7869 18.47 77.0769 18.58 77.4769 18.58C77.6369 18.58 77.8269 18.56 78.0469 18.52C78.2669 18.48 78.5069 18.42 78.7669 18.34C79.3669 18.14 79.9569 17.82 80.5369 17.38C81.1169 16.94 81.6469 16.47 82.1269 15.97C82.6269 15.45 83.0069 15.02 83.2669 14.68C83.3269 14.74 83.3569 14.81 83.3569 14.89C83.3569 14.99 83.2869 15.15 83.1469 15.37C82.7469 15.93 82.2269 16.51 81.5869 17.11C80.9469 17.71 80.2369 18.22 79.4569 18.64C78.6769 19.04 77.8669 19.24 77.0269 19.24ZM77.0569 14.83C77.3169 14.85 77.6069 14.85 77.9269 14.83C78.2669 14.79 78.5969 14.72 78.9169 14.62C79.7369 14.38 80.3269 14 80.6869 13.48C81.0669 12.94 81.2569 12.46 81.2569 12.04C81.2569 11.8 81.2069 11.6 81.1069 11.44C81.0069 11.28 80.8469 11.2 80.6269 11.2C80.0469 11.2 79.5269 11.42 79.0669 11.86C78.6069 12.28 78.2069 12.77 77.8669 13.33C77.5269 13.89 77.2569 14.39 77.0569 14.83ZM82.9676 19.45C82.8876 19.45 82.8876 19.36 82.9676 19.18C83.0676 19 83.1576 18.8 83.2376 18.58C83.3376 18.36 83.4376 18.12 83.5376 17.86C83.7376 17.38 83.9576 16.84 84.1976 16.24C84.4376 15.64 84.6676 15.06 84.8876 14.5C85.1076 13.92 85.2976 13.43 85.4576 13.03C85.6376 12.61 85.7576 12.34 85.8176 12.22C85.5376 12.52 85.1976 12.9 84.7976 13.36C84.4176 13.8 84.0576 14.23 83.7176 14.65C83.3776 15.07 83.1176 15.4 82.9376 15.64C82.8776 15.72 82.8276 15.76 82.7876 15.76C82.7476 15.76 82.7276 15.71 82.7276 15.61C82.7276 15.45 82.7776 15.3 82.8776 15.16C83.2576 14.68 83.6776 14.14 84.1376 13.54C84.6176 12.94 85.0476 12.39 85.4276 11.89C85.8076 11.37 86.0476 11.03 86.1476 10.87C86.3676 10.83 86.6876 10.77 87.1076 10.69C87.5476 10.61 87.8476 10.5 88.0076 10.36C88.0676 10.3 88.1276 10.27 88.1876 10.27C88.2276 10.27 88.2476 10.31 88.2476 10.39C88.2676 10.45 88.2476 10.52 88.1876 10.6C88.0676 10.74 87.8576 11.07 87.5576 11.59C87.2776 12.09 86.9676 12.65 86.6276 13.27C86.3076 13.89 86.0076 14.45 85.7276 14.95C86.0476 14.57 86.3576 14.21 86.6576 13.87C86.9776 13.53 87.1976 13.29 87.3176 13.15C87.5576 12.91 87.8876 12.61 88.3076 12.25C88.7276 11.89 89.1676 11.56 89.6276 11.26C90.0876 10.96 90.4876 10.79 90.8276 10.75C90.9076 10.73 90.9776 10.72 91.0376 10.72C91.0976 10.72 91.1576 10.72 91.2176 10.72C91.5976 10.72 91.7876 10.86 91.7876 11.14C91.7876 11.26 91.7576 11.4 91.6976 11.56C91.6376 11.72 91.5576 11.88 91.4576 12.04C91.3376 12.28 91.1376 12.66 90.8576 13.18C90.5776 13.68 90.3276 14.14 90.1076 14.56L91.5176 13.15C91.7576 12.91 92.0876 12.61 92.5076 12.25C92.9276 11.89 93.3676 11.56 93.8276 11.26C94.2876 10.96 94.6876 10.79 95.0276 10.75C95.1076 10.73 95.1776 10.72 95.2376 10.72C95.3176 10.72 95.3776 10.72 95.4176 10.72C95.8576 10.72 96.0776 10.88 96.0776 11.2C96.0776 11.44 95.9476 11.76 95.6876 12.16C95.5476 12.38 95.3276 12.75 95.0276 13.27C94.7276 13.79 94.4176 14.36 94.0976 14.98C93.7976 15.58 93.5376 16.14 93.3176 16.66C93.0976 17.18 92.9876 17.56 92.9876 17.8C92.9876 18.08 93.1276 18.22 93.4076 18.22C93.6676 18.22 93.9976 18.07 94.3976 17.77C94.8176 17.45 95.2376 17.07 95.6576 16.63C96.0976 16.19 96.4776 15.77 96.7976 15.37C96.9376 15.21 97.0676 15.05 97.1876 14.89C97.3276 14.71 97.4076 14.61 97.4276 14.59C97.4676 14.63 97.4876 14.7 97.4876 14.8C97.4876 14.94 97.4376 15.08 97.3376 15.22C97.2576 15.34 97.1776 15.45 97.0976 15.55C96.7176 16.05 96.2776 16.57 95.7776 17.11C95.2976 17.65 94.7676 18.11 94.1876 18.49C93.6076 18.85 92.9876 19.06 92.3276 19.12C92.1276 19.14 91.9276 19.1 91.7276 19C91.5276 18.9 91.4276 18.74 91.4276 18.52C91.4276 18.24 91.4976 17.91 91.6376 17.53C91.7976 17.15 91.9676 16.77 92.1476 16.39C92.3476 16.01 92.4976 15.7 92.5976 15.46C92.9576 14.76 93.2876 14.1 93.5876 13.48C93.8876 12.86 94.0976 12.42 94.2176 12.16C94.2776 12.04 94.3076 11.94 94.3076 11.86C94.3076 11.72 94.1976 11.71 93.9776 11.83C93.7576 11.95 93.4876 12.13 93.1676 12.37C92.8676 12.61 92.5876 12.85 92.3276 13.09C92.0676 13.31 91.8976 13.46 91.8176 13.54C91.4776 13.88 91.0676 14.34 90.5876 14.92C90.1276 15.5 89.6976 16.11 89.2976 16.75C88.8976 17.37 88.6176 17.95 88.4576 18.49C88.2576 18.67 88.0676 18.76 87.8876 18.76C87.7476 18.76 87.6276 18.71 87.5276 18.61C87.4476 18.51 87.4076 18.39 87.4076 18.25C87.4076 17.85 87.5276 17.38 87.7676 16.84C88.0276 16.28 88.2376 15.82 88.3976 15.46C88.7576 14.76 89.0876 14.1 89.3876 13.48C89.6876 12.86 89.8976 12.42 90.0176 12.16C90.0776 12.04 90.1076 11.94 90.1076 11.86C90.1076 11.72 89.9976 11.71 89.7776 11.83C89.5576 11.95 89.2876 12.13 88.9676 12.37C88.6676 12.61 88.3876 12.85 88.1276 13.09C87.8676 13.31 87.6976 13.46 87.6176 13.54C87.1376 14.04 86.6876 14.55 86.2676 15.07C85.8676 15.59 85.5276 16.15 85.2476 16.75C85.0876 17.11 84.9176 17.51 84.7376 17.95C84.5576 18.39 84.4076 18.76 84.2876 19.06C84.0276 19.08 83.7676 19.15 83.5076 19.27C83.2476 19.39 83.0676 19.45 82.9676 19.45ZM97.3594 19.06C97.0394 19.06 96.7494 19 96.4894 18.88C96.2494 18.74 96.1294 18.45 96.1294 18.01C96.1294 17.31 96.3094 16.61 96.6694 15.91C97.0294 15.19 97.3994 14.56 97.7794 14.02C98.1194 13.56 98.4994 13.13 98.9194 12.73C99.3594 12.31 99.8294 11.95 100.329 11.65C100.649 11.45 101.079 11.24 101.619 11.02C102.179 10.78 102.649 10.66 103.029 10.66C103.349 10.66 103.629 10.75 103.869 10.93C104.109 11.09 104.229 11.39 104.229 11.83C104.229 12.51 104.049 13.21 103.689 13.93C103.349 14.63 102.989 15.25 102.609 15.79C102.429 16.03 102.249 16.26 102.069 16.48C101.889 16.68 101.689 16.89 101.469 17.11C102.209 17.11 102.889 16.9 103.509 16.48C104.129 16.04 104.669 15.51 105.129 14.89L105.189 14.83C105.249 14.83 105.279 14.89 105.279 15.01C105.279 15.15 105.239 15.28 105.159 15.4C104.759 15.96 104.259 16.46 103.659 16.9C103.059 17.32 102.379 17.53 101.619 17.53C101.539 17.53 101.459 17.53 101.379 17.53C101.299 17.53 101.219 17.52 101.139 17.5C100.019 18.54 98.7594 19.06 97.3594 19.06ZM98.1394 18.55C98.4194 18.55 98.7194 18.45 99.0394 18.25C99.3794 18.05 99.6394 17.86 99.8194 17.68C100.159 17.34 100.469 16.98 100.749 16.6C101.029 16.2 101.289 15.8 101.529 15.4C101.809 14.92 102.089 14.35 102.369 13.69C102.649 13.03 102.789 12.41 102.789 11.83C102.789 11.37 102.629 11.14 102.309 11.14C102.049 11.14 101.729 11.25 101.349 11.47C100.989 11.69 100.719 11.89 100.539 12.07C99.8594 12.77 99.2894 13.53 98.8294 14.35C98.5694 14.81 98.2894 15.35 97.9894 15.97C97.6894 16.59 97.5394 17.16 97.5394 17.68C97.5394 17.76 97.5394 17.84 97.5394 17.92C97.5594 17.98 97.5794 18.05 97.5994 18.13C97.6794 18.41 97.8594 18.55 98.1394 18.55Z" fill="white"/>
</svg>
